<svg xmlns="http://www.w3.org/2000/svg" width="200" height="17.5"><path d="M0 10.2l.7-1.5C.4 7.9.1 7.5 0 6.6v3.6zM1.6 0S0 0 0 2v.3C.2 4.2.7 6 1.4 7.7c.9-1.5 1.7-2.3 3.1-3.5C7.1 2 10.2.7 15.1 0H1.6z" fill="#a8bd3a"/><path d="M75.9 6.8v7.9h1.2V7.4c.5-.3 1.7-.4 2.4-.1l.2-1h-.6c-1.5-.1-2.4.1-3.2.5zm20.9-.5c-1.3 0-2.4.4-3 .6l.4 1c.7-.3 1.5-.5 2.3-.5 1.1 0 1.9.3 1.9 1.5v.4c-2.8.2-5.1.9-5.1 3.1 0 1.6 1.2 2.5 3.6 2.5 1.3 0 2.5-.2 3.1-.6V9.2c0-2.1-1.3-2.9-3.2-2.9zm1.6 7.4c-.3.1-.8.3-1.4.3-1.2 0-2-.5-2-1.6 0-1.6 1.4-2 3.4-2.2v3.5zm5.8-9.6l-1.7.5v1.8h-1.2v1.1h1.2v5.1c0 1.2.7 2.3 2.4 2.3l.9-.1v-1.1l-.5.1c-.7 0-1.1-.5-1.1-1.2v-5h1.6V6.5h-1.6V4.1zM70.8 6.3c-2.5 0-3.6 1.9-3.6 4.3s1.2 4.3 3.6 4.3c2.4 0 3.5-1.9 3.5-4.3s-1.1-4.3-3.5-4.3zm0 7.7c-1.7 0-2.3-1.7-2.3-3.4s.5-3.5 2.3-3.5c1.7 0 2.3 1.8 2.3 3.5.1 1.6-.4 3.4-2.3 3.4zm19.6-3.2l.1 1.2-.7-1-4.4-6.8h-1.7v10.4h1.5v-7l-.1-1.2s.2.6.6 1.1l4.7 7.2h1.5V4.2h-1.5v6.6zm-47-7.4c-.4 0-.7.3-.7.7s.3.7.7.7c.4 0 .7-.3.7-.7s-.3-.7-.7-.7zm-9.8 1.8v1.2h-1.2v.7h1.2v7.5h1.2V7.1h1.7v-.7h-1.7V5.1c0-1.2.8-1.7 1.6-1.7h.1v-.7h-.3c-1.7 0-2.6 1-2.6 2.5zm4.9 0v1.2h-1.2v.7h1.2v7.5h1.2V7.1h1.7v-.7h-1.7V5.1c0-1.2.8-1.7 1.6-1.7h.1v-.7h-.3c-1.7 0-2.6 1-2.6 2.5zM26.9 3.9c-3 0-4.3 2.5-4.3 5.5s1.4 5.5 4.3 5.5c3 0 4.2-2.4 4.2-5.5 0-3-1.2-5.5-4.2-5.5zm0 10c-2.2 0-2.9-2.3-2.9-4.5s.7-4.6 2.9-4.6 2.9 2.4 2.9 4.6c0 2.2-.7 4.5-2.9 4.5zm15.9.7H44V6.4h-1.2v8.2zm12.8-8.3c-2 0-3.6 1.5-3.6 4.3 0 3 1.6 4.4 3.9 4.4 1.2 0 2.2-.3 2.7-.6l-.4-.9c-.5.2-1.2.5-2.3.5-1.7 0-2.8-.9-2.9-2.9l5.8-.8c.2-2.7-1.1-4-3.2-4zm-2.5 4C53.1 8 54.2 7 55.6 7c1.3 0 2.2.8 2.2 2.7l-4.7.6zm10.5-5.1v1.2h-1.2v.7h1.2v7.5h1.2V7.1h1.7v-.7h-1.7V5.1c0-1.2.8-1.7 1.6-1.7h.1v-.7h-.3c-1.8 0-2.6 1-2.6 2.5zM49.5 7.1c.7 0 1.2.2 1.5.4l.3-.7c-.4-.3-1-.6-2-.6-2 0-3.5 1.6-3.5 4.3 0 2.6 1.5 4.3 3.4 4.3 1 0 1.7-.3 2-.5l-.3-.8c-.4.3-.9.5-1.5.5-1.5 0-2.5-1.4-2.5-3.4.1-2 .9-3.5 2.6-3.5zm57.7 7.6h1.7V6.5h-1.7v8.2zm62.5-11.5c-.6 0-1 .4-1 .9s.4.9 1 .9c.5 0 1-.4 1-.9s-.4-.9-1-.9zm4.3 5.4c0-.6.5-1.2 1.5-1.2.7 0 1.2.2 1.5.4l.4-1c-.6-.3-1.3-.6-2.3-.6-1.8 0-2.9 1.2-2.9 2.4 0 2.7 3.6 1.7 3.6 3.7 0 .7-.7 1.3-1.6 1.3-.6 0-1.3-.2-1.8-.5l-.4 1.2c.5.3 1.5.6 2.5.6 2 0 3.2-1.2 3.3-2.5-.1-2.8-3.8-2-3.8-3.8zm-5.2 6.1h1.7V6.5h-1.7v8.2zm-3-10.6l-1.8.6v1.8h-1.2v1.1h1.2v5.1c0 1.2.7 2.3 2.4 2.3.3 0 .6 0 .9-.1v-1.1l-.5.1c-.7 0-1.1-.5-1.1-1.2v-5h1.6V6.5h-1.6V4.1zm15.6 0l-1.7.5v1.8h-1.2v1.1h1.2v5.1c0 1.2.7 2.3 2.4 2.3l.9-.1v-1.1l-.5.1c-.7 0-1.1-.5-1.1-1.2v-5h1.6V6.5h-1.6V4.1zm14.9 4.5c0-.6.5-1.2 1.5-1.2.7 0 1.2.2 1.5.4l.4-1c-.6-.3-1.3-.6-2.3-.6-1.8 0-2.9 1.2-2.9 2.4 0 2.7 3.6 1.7 3.6 3.7 0 .7-.7 1.3-1.6 1.3-.6 0-1.3-.2-1.8-.5l-.4 1.2c.5.3 1.5.6 2.5.6 2 0 3.2-1.2 3.3-2.5-.1-2.8-3.8-2-3.8-3.8zm-4.6-1.1c.6 0 1.1.1 1.3.4l.4-1c-.4-.3-1.1-.6-2.1-.6-2 0-3.6 1.6-3.6 4.3s1.5 4.4 3.6 4.4c1.1 0 1.8-.3 2.1-.6l-.4-1.1c-.4.2-.7.4-1.3.4-1.2 0-2.1-1.2-2.1-3.1-.1-1.9.6-3.1 2.1-3.1zM108 3.2c-.6 0-1 .4-1 .9s.4.9 1 .9 1-.4 1-.9-.4-.9-1-.9zm77.3 0c-.6 0-1 .4-1 .9s.4.9 1 .9 1-.4 1-.9-.4-.9-1-.9zm-.9 11.5h1.7V6.5h-1.7v8.2zm-48.2 0h1.7v-12h-1.7v12zm-5.1-8.4c-1.3 0-2.4.4-3 .6l.4 1c.7-.3 1.5-.5 2.3-.5 1.1 0 1.9.3 1.9 1.5v.4c-2.8.2-5.1.9-5.1 3.1 0 1.6 1.2 2.5 3.6 2.5 1.4 0 2.5-.2 3.1-.6V9.2c0-2.1-1.4-2.9-3.2-2.9zm1.6 7.4c-.3.1-.8.3-1.4.3-1.2 0-2-.5-2-1.6 0-1.6 1.4-2 3.4-2.2v3.5zm-10-7.4c-1.3 0-2.5.2-3.3.6v7.7h1.8v-7c.3-.1.8-.2 1.4-.2 1 0 1.9.4 1.9 1.5v5.9l1.7.1v-6c0-1.8-1.4-2.6-3.5-2.6zm-8.5 0c-2.5 0-3.8 2-3.8 4.4 0 2.4 1.2 4.3 3.8 4.3 2.5 0 3.7-1.8 3.7-4.3s-1.1-4.4-3.7-4.4zm0 7.5c-1.5 0-2-1.5-2-3.1s.4-3.2 2-3.2c1.5 0 2 1.6 2 3.2s-.4 3.1-2 3.1zm30-6.9c0-1 .7-1.7 1.9-1.7.7 0 1.5.3 1.8.5l.4-1.2c-.4-.2-1.3-.5-2.5-.5-2.1 0-3.5 1.5-3.5 3.1 0 3.3 4.4 2.3 4.4 4.7 0 1-.9 1.7-2.1 1.7-.8 0-1.6-.3-2-.5l-.5 1.3c.6.3 1.6.6 2.8.6 2.2 0 3.7-1.4 3.8-3.3 0-3.4-4.5-2.4-4.5-4.7zm14.2-.6c-1.3 0-2.4.4-3 .6l.4 1c.7-.3 1.5-.5 2.3-.5 1.1 0 1.9.3 1.9 1.5v.4c-2.8.2-5.1.9-5.1 3.1 0 1.6 1.2 2.5 3.6 2.5 1.4 0 2.5-.2 3.1-.6V9.2c0-2.1-1.4-2.9-3.2-2.9zm1.6 7.4c-.3.1-.8.3-1.4.3-1.2 0-2-.5-2-1.6 0-1.6 1.4-2 3.4-2.2v3.5zm-7.6-9.6l-1.7.5v1.8h-1.2v1.1h1.2v5.1c0 1.2.7 2.3 2.4 2.3l.9-.1v-1.1l-.5.1c-.7 0-1.1-.5-1.1-1.2v-5h1.6V6.5h-1.6V4.1zM3.2 12.8c-.7-.7-1.2-1.5-1.7-2.4C.9 11.5.4 12.7 0 14v3.5h10.2c-2.8-.8-5.2-2.4-7-4.7zm2.2-7.3C4 6.6 2.9 8 2.1 9.5c2.6 4.9 7.6 8 13.2 8h.1s2 .1 2-2.3V1.1h-.1c-5.4.5-9.2 2.1-11.9 4.4z" fill="#fff"/></svg>